<svg xmlns="http://www.w3.org/2000/svg" xmlns:xlink="http://www.w3.org/1999/xlink" id="Layer_1" x="0" y="0" version="1.1" viewBox="0 0 26.8 22.8" xml:space="preserve" style="enable-background:new 0 0 26.8 22.8"><style type="text/css">.st0{fill:#999}.st1{fill:#f8ac59}.st2{fill:#1ab394}.st3{fill:#f66}</style><g id="XMLID_404_"><path id="XMLID_408_" d="M7.2,15.2l3-1c0.9,1.7,2.8,2.9,4.9,2.9c1.1,0,2.1-0.3,3-0.9l2.8,3l1.7-1.6l-2.8-3 c0.6-0.9,0.9-1.9,0.9-3.1c0-1.2-0.4-2.3-1-3.2l1.5-1.5l-1.6-1.6L18,6.8C17.1,6.3,16.2,6,15.1,6C12,6,9.6,8.5,9.6,11.6 c0,0.2,0,0.3,0,0.5l-3.1,1L7.2,15.2z" class="st0"/><circle id="XMLID_407_" cx="3.8" cy="15.1" r="3.8" class="st1"/><circle id="XMLID_406_" cx="21.3" cy="3.5" r="3.5" class="st2"/><circle id="XMLID_405_" cx="23.3" cy="19.4" r="3.5" class="st3"/></g></svg>